<?xml version="1.0" encoding="UTF-8"?>
<svg width="24px" height="24px" viewBox="0 0 24 24" version="1.1" xmlns="http://www.w3.org/2000/svg" xmlns:xlink="http://www.w3.org/1999/xlink">
    <!-- Generator: Sketch 55.2 (78181) - https://sketchapp.com -->
    <title>Icons/mail-white</title>
    <desc>Created with Sketch.</desc>
    <g id="Icons/mail" stroke="none" stroke-width="1" fill="none" fill-rule="evenodd">
        <path d="M22.9999505,5.98265144 C23.0001127,5.99252169 23.000129,6.00238891 23,6.01224973 L23,18 C23,19.6522847 21.6522847,21 20,21 L4,21 C2.34771525,21 1,19.6522847 1,18 L1,6.01224973 C0.999870963,6.00238891 0.999887279,5.99252169 1.00004955,5.98265144 C1.00944363,4.33829189 2.35350185,3 4,3 L20,3 C21.6464981,3 22.9905564,4.33829189 22.9999505,5.98265144 Z M20.8934226,5.5539486 C20.7280425,5.22692322 20.3879612,5 20,5 L4,5 C3.61203877,5 3.27195754,5.22692322 3.10657738,5.5539486 L12,11.7793444 L20.8934226,5.5539486 Z M21,7.92065556 L12.5734623,13.8192319 C12.2291422,14.060256 11.7708578,14.060256 11.4265377,13.8192319 L3,7.92065556 L3,18 C3,18.5477153 3.45228475,19 4,19 L20,19 C20.5477153,19 21,18.5477153 21,18 L21,7.92065556 Z" id="icon" fill="#FFFFFF"></path>
    </g>
</svg>